<mxfile host="65bd71144e">
    <diagram id="aIxbjxV_KHVzk3ZjNMo6" name="Página-1">
        <mxGraphModel dx="1342" dy="797" grid="1" gridSize="10" guides="1" tooltips="1" connect="1" arrows="1" fold="1" page="1" pageScale="1" pageWidth="1169" pageHeight="827" math="0" shadow="0">
            <root>
                <mxCell id="0"/>
                <mxCell id="1" parent="0"/>
                <mxCell id="3" value="&lt;span style=&quot;color: rgb(255, 255, 255); font-family: Roboto, &amp;quot;Comic Sans MS&amp;quot;; font-size: 14px; font-weight: 400; text-align: start; caret-color: rgb(255, 255, 255); background-color: rgb(56, 56, 56);&quot;&gt;Curso Web Moderno Completo com JavaScript Projetos&lt;/span&gt;" style="swimlane;whiteSpace=wrap;html=1;startSize=40;" parent="1" vertex="1">
                    <mxGeometry x="37" y="20" width="1095" height="760" as="geometry"/>
                </mxCell>
                <mxCell id="22" value="Fundametos " style="swimlane;fontStyle=0;childLayout=stackLayout;horizontal=1;startSize=26;horizontalStack=0;resizeParent=1;resizeParentMax=0;resizeLast=0;collapsible=1;marginBottom=0;align=center;fontSize=14;" parent="3" vertex="1" collapsed="1">
                    <mxGeometry x="220" y="70" width="110" height="30" as="geometry">
                        <mxRectangle x="220" y="70" width="290" height="620" as="alternateBounds"/>
                    </mxGeometry>
                </mxCell>
                <mxCell id="23" value="- Tipagem Fraca&#10;    - Comentários &#10;    - Básico Var, Let e Const&#10;    - TemplateString&#10;    - String&#10;    - Números&#10;    - cuidados Números &#10;    - Math&#10;    - Boolean&#10;    - Arrays&#10;    - Object&#10;    - Null e Undefined&#10;    - Função&#10;    - EXercícios: Declaração de Variáveis com Var&#10;    - Declaração de Variáveis com Let&#10;    - Usando Var em Loop&#10;    - Usando Let em Loop&#10;    - Hoisting&#10;    - Chave/Valor&#10;    - Notação Ponto &#10;    - Operadores: Atribuição&#10;    - Operadores: Destructuring&#10;    - Operadores: Aritméticos&#10;    - Operadores: Relacionais &#10;    - Operadores: Lógicos&#10;    - Operadores: Unários&#10;    - Operadores: Ternários &#10;    - COntexto de Execução: Browser vs Node&#10;    - Tratamento de Erro (try/ Catch/ Throw)" style="text;strokeColor=none;fillColor=none;spacingLeft=4;spacingRight=4;overflow=hidden;rotatable=0;points=[[0,0.5],[1,0.5]];portConstraint=eastwest;fontSize=12;" parent="22" vertex="1">
                    <mxGeometry y="26" width="290" height="594" as="geometry"/>
                </mxCell>
                <mxCell id="26" value="JavaScript" style="ellipse;whiteSpace=wrap;html=1;align=center;" parent="3" vertex="1">
                    <mxGeometry x="140" y="180" width="100" height="40" as="geometry"/>
                </mxCell>
                <mxCell id="31" value="Estrtura de Dados" style="swimlane;fontStyle=0;childLayout=stackLayout;horizontal=1;startSize=26;horizontalStack=0;resizeParent=1;resizeParentMax=0;resizeLast=0;collapsible=1;marginBottom=0;align=center;fontSize=14;" parent="3" vertex="1" collapsed="1">
                    <mxGeometry x="283" y="120" width="157" height="30" as="geometry">
                        <mxRectangle x="220" y="70" width="290" height="620" as="alternateBounds"/>
                    </mxGeometry>
                </mxCell>
                <mxCell id="32" value="- Tipagem Fraca&#10;    - Comentários &#10;    - Básico Var, Let e Const&#10;    - TemplateString&#10;    - String&#10;    - Números&#10;    - cuidados Números &#10;    - Math&#10;    - Boolean&#10;    - Arrays&#10;    - Object&#10;    - Null e Undefined&#10;    - Função&#10;    - EXercícios: Declaração de Variáveis com Var&#10;    - Declaração de Variáveis com Let&#10;    - Usando Var em Loop&#10;    - Usando Let em Loop&#10;    - Hoisting&#10;    - Chave/Valor&#10;    - Notação Ponto &#10;    - Operadores: Atribuição&#10;    - Operadores: Destructuring&#10;    - Operadores: Aritméticos&#10;    - Operadores: Relacionais &#10;    - Operadores: Lógicos&#10;    - Operadores: Unários&#10;    - Operadores: Ternários &#10;    - COntexto de Execução: Browser vs Node&#10;    - Tratamento de Erro (try/ Catch/ Throw)" style="text;strokeColor=none;fillColor=none;spacingLeft=4;spacingRight=4;overflow=hidden;rotatable=0;points=[[0,0.5],[1,0.5]];portConstraint=eastwest;fontSize=12;" parent="31" vertex="1">
                    <mxGeometry y="26" width="290" height="594" as="geometry"/>
                </mxCell>
                <mxCell id="33" value="Função" style="swimlane;fontStyle=0;childLayout=stackLayout;horizontal=1;startSize=26;horizontalStack=0;resizeParent=1;resizeParentMax=0;resizeLast=0;collapsible=1;marginBottom=0;align=center;fontSize=14;" parent="3" vertex="1" collapsed="1">
                    <mxGeometry x="303" y="180" width="157" height="30" as="geometry">
                        <mxRectangle x="220" y="70" width="290" height="620" as="alternateBounds"/>
                    </mxGeometry>
                </mxCell>
                <mxCell id="34" value="- Tipagem Fraca&#10;    - Comentários &#10;    - Básico Var, Let e Const&#10;    - TemplateString&#10;    - String&#10;    - Números&#10;    - cuidados Números &#10;    - Math&#10;    - Boolean&#10;    - Arrays&#10;    - Object&#10;    - Null e Undefined&#10;    - Função&#10;    - EXercícios: Declaração de Variáveis com Var&#10;    - Declaração de Variáveis com Let&#10;    - Usando Var em Loop&#10;    - Usando Let em Loop&#10;    - Hoisting&#10;    - Chave/Valor&#10;    - Notação Ponto &#10;    - Operadores: Atribuição&#10;    - Operadores: Destructuring&#10;    - Operadores: Aritméticos&#10;    - Operadores: Relacionais &#10;    - Operadores: Lógicos&#10;    - Operadores: Unários&#10;    - Operadores: Ternários &#10;    - COntexto de Execução: Browser vs Node&#10;    - Tratamento de Erro (try/ Catch/ Throw)" style="text;strokeColor=none;fillColor=none;spacingLeft=4;spacingRight=4;overflow=hidden;rotatable=0;points=[[0,0.5],[1,0.5]];portConstraint=eastwest;fontSize=12;" parent="33" vertex="1">
                    <mxGeometry y="26" width="290" height="594" as="geometry"/>
                </mxCell>
                <mxCell id="35" value="Objeto" style="swimlane;fontStyle=0;childLayout=stackLayout;horizontal=1;startSize=26;horizontalStack=0;resizeParent=1;resizeParentMax=0;resizeLast=0;collapsible=1;marginBottom=0;align=center;fontSize=14;" parent="3" vertex="1" collapsed="1">
                    <mxGeometry x="263" y="250" width="157" height="30" as="geometry">
                        <mxRectangle x="220" y="70" width="290" height="620" as="alternateBounds"/>
                    </mxGeometry>
                </mxCell>
                <mxCell id="36" value="- Tipagem Fraca&#10;    - Comentários &#10;    - Básico Var, Let e Const&#10;    - TemplateString&#10;    - String&#10;    - Números&#10;    - cuidados Números &#10;    - Math&#10;    - Boolean&#10;    - Arrays&#10;    - Object&#10;    - Null e Undefined&#10;    - Função&#10;    - EXercícios: Declaração de Variáveis com Var&#10;    - Declaração de Variáveis com Let&#10;    - Usando Var em Loop&#10;    - Usando Let em Loop&#10;    - Hoisting&#10;    - Chave/Valor&#10;    - Notação Ponto &#10;    - Operadores: Atribuição&#10;    - Operadores: Destructuring&#10;    - Operadores: Aritméticos&#10;    - Operadores: Relacionais &#10;    - Operadores: Lógicos&#10;    - Operadores: Unários&#10;    - Operadores: Ternários &#10;    - COntexto de Execução: Browser vs Node&#10;    - Tratamento de Erro (try/ Catch/ Throw)" style="text;strokeColor=none;fillColor=none;spacingLeft=4;spacingRight=4;overflow=hidden;rotatable=0;points=[[0,0.5],[1,0.5]];portConstraint=eastwest;fontSize=12;" parent="35" vertex="1">
                    <mxGeometry y="26" width="290" height="594" as="geometry"/>
                </mxCell>
                <mxCell id="37" value="Array" style="swimlane;fontStyle=0;childLayout=stackLayout;horizontal=1;startSize=26;horizontalStack=0;resizeParent=1;resizeParentMax=0;resizeLast=0;collapsible=1;marginBottom=0;align=center;fontSize=14;" parent="3" vertex="1" collapsed="1">
                    <mxGeometry x="93" y="300" width="157" height="30" as="geometry">
                        <mxRectangle x="220" y="70" width="290" height="620" as="alternateBounds"/>
                    </mxGeometry>
                </mxCell>
                <mxCell id="38" value="- Tipagem Fraca&#10;    - Comentários &#10;    - Básico Var, Let e Const&#10;    - TemplateString&#10;    - String&#10;    - Números&#10;    - cuidados Números &#10;    - Math&#10;    - Boolean&#10;    - Arrays&#10;    - Object&#10;    - Null e Undefined&#10;    - Função&#10;    - EXercícios: Declaração de Variáveis com Var&#10;    - Declaração de Variáveis com Let&#10;    - Usando Var em Loop&#10;    - Usando Let em Loop&#10;    - Hoisting&#10;    - Chave/Valor&#10;    - Notação Ponto &#10;    - Operadores: Atribuição&#10;    - Operadores: Destructuring&#10;    - Operadores: Aritméticos&#10;    - Operadores: Relacionais &#10;    - Operadores: Lógicos&#10;    - Operadores: Unários&#10;    - Operadores: Ternários &#10;    - COntexto de Execução: Browser vs Node&#10;    - Tratamento de Erro (try/ Catch/ Throw)" style="text;strokeColor=none;fillColor=none;spacingLeft=4;spacingRight=4;overflow=hidden;rotatable=0;points=[[0,0.5],[1,0.5]];portConstraint=eastwest;fontSize=12;" parent="37" vertex="1">
                    <mxGeometry y="26" width="290" height="594" as="geometry"/>
                </mxCell>
            </root>
        </mxGraphModel>
    </diagram>
</mxfile>